<?xml version="1.0" encoding="UTF-8"?>
<svg width="200px" height="77px" viewBox="0 0 200 77" version="1.1" xmlns="http://www.w3.org/2000/svg" xmlns:xlink="http://www.w3.org/1999/xlink">
    <!-- Generator: Sketch 51.3 (57544) - http://www.bohemiancoding.com/sketch -->
    <title>Group 57</title>
    <desc>Created with Sketch.</desc>
    <defs></defs>
    <g id="Page-1" stroke="none" stroke-width="1" fill="none" fill-rule="evenodd">
        <g id="Franchise-dealer-cars-list-page-v5" transform="translate(-892.000000, -1337.000000)" stroke="#AAAAAA" stroke-width="2">
            <g id="Group-5-Copy-2" transform="translate(819.000000, 1264.000000)">
                <g id="Group-13" transform="translate(74.000000, 74.000000)">
                    <g id="Group-57">
                        <path d="M183,17 C162.354185,17 147.645405,17.766 127,17.766 L183,17 Z" id="Stroke-3" stroke-linecap="round" stroke-linejoin="round"></path>
                        <path d="M181,22 C156.812865,22.3609564 137.119831,23.0942735 121.920898,24.1999512 L181,22 Z" id="Stroke-5" stroke-linecap="round" stroke-linejoin="round"></path>
                        <path d="M121.210938,7.5 C115.444202,7.26484332 64.7736844,7.10022454 53,8" id="Stroke-9" stroke-linecap="round" stroke-linejoin="round"></path>
                        <path d="M127,18 C125.930709,19.2252655 121.250349,22.313024 122.103245,24" id="Stroke-11" stroke-linecap="round" stroke-linejoin="round"></path>
                        <path d="M84.9453125,24.6394043 C88.4306519,25.5752851 116.462119,24.5255833 122,24 C118.184399,24.1037253 96.4797789,25.455934 84.9453125,24.6394043 Z" id="Stroke-13" stroke-linecap="round" stroke-linejoin="round"></path>
                        <path d="M82,8 L86,24" id="Stroke-15" stroke-linecap="round" stroke-linejoin="round"></path>
                        <path d="M86,24.6135495 C80.2388214,24.6135495 75.4970858,24 69.7359071,24 C65.2319612,24 52.6782796,24.1317834 48.2944336,25" id="Stroke-17" stroke-linecap="round" stroke-linejoin="round"></path>
                        <path d="M49.190918,24.4892578 C50.2764883,22.5760395 53.6094497,9.49384468 52.9085571,8" id="Stroke-19" stroke-linecap="round" stroke-linejoin="round"></path>
                        <path d="M128,17.6402852 C117.890237,2.29121218 121.739953,5.21533181 120.335042,4.40591522 C118.91553,3.5883227 90.221112,0.726748902 85.9625765,0.317952645 C81.704041,-0.0908436127 74.8092692,0.0113554516 74.8092692,0.0113554516 L39.4962761,1.82681963 C35.958447,2.09907794 31.5555584,25.3023072 29.2336426,27.255127" id="Stroke-21" stroke-linecap="round" stroke-linejoin="round"></path>
                        <path d="M148,58 C148,67.3886132 155.611387,75 165,75 C174.388613,75 182,67.3886132 182,58 C182,48.6113868 174.388613,41 165,41 C155.611387,41 148,48.6113868 148,58 Z" id="Stroke-27" stroke-linecap="round" stroke-linejoin="round"></path>
                        <path d="M157,58 C157,62.9704693 161.029531,67 166,67 C170.970469,67 175,62.9704693 175,58 C175,53.0295307 170.970469,49 166,49 C161.029531,49 157,53.0295307 157,58 Z" id="Stroke-29" stroke-linecap="round" stroke-linejoin="round"></path>
                        <path d="M23,57.5 C23,67.165018 30.834982,75 40.5,75 C50.165018,75 58,67.165018 58,57.5 C58,47.834982 50.165018,40 40.5,40 C30.834982,40 23,47.834982 23,57.5 Z" id="Stroke-31" stroke-linecap="round" stroke-linejoin="round"></path>
                        <path d="M31,57.5 C31,62.7464543 35.2532239,67 40.5002073,67 C45.7467761,67 50,62.7464543 50,57.5 C50,52.2535457 45.7467761,48 40.5002073,48 C35.2532239,48 31,52.2535457 31,57.5 Z" id="Stroke-33" stroke-linecap="round" stroke-linejoin="round"></path>
                        <path d="M59,62 C59,62 119.540765,63.2060377 131.887894,62.2412075 C131.887894,62.2412075 137.381806,62.160805 148.369629,62" id="Stroke-39" stroke-linecap="round" stroke-linejoin="round"></path>
                        <path d="M60.9941406,24.1860352 C61.6984863,24.3609903 44.4590042,24.1751075 30.5,27.3150209 C29.0757603,27.7431541 24.9611814,27.3150209 15.7179373,30.0179325 C8.77894878,31.6073035 3.1109063,31.9850243 1.51956056,43.6508768 L0.377266036,51.7368824 C0.377266036,57.1214487 -1.49735599,62.02249 3.1109063,62.8265055 C7.78385164,63.6414572 23.7470703,64.9996268 23.7470703,62.8265055" id="Stroke-47" stroke-linecap="round" stroke-linejoin="round"></path>
                        <polyline id="Stroke-53" stroke-linecap="round" stroke-linejoin="round" points="181 28.7216797 181 21.1551555 182.564005 17 184.910732 19.9182991 186.085449 29.4875485"></polyline>
                        <path d="M181,29 L193.099569,32.146101 C195.5809,32.4617129 197.011394,33.8774824 197.391049,36.3934096 C199.329372,49.2384253 196.020638,58.7541366 196.020638,59.5292828 C196.020638,60.6553007 191.376584,61.1347379 182.088475,60.9675947" id="Path-2-Copy" fill-rule="nonzero"></path>
                    </g>
                </g>
            </g>
        </g>
    </g>
</svg>